<svg width="63" height="58" viewBox="0 0 60 34" fill="none" xmlns="http://www.w3.org/2000/svg">
<path d="M0.152 17.2C0.152 7.888 7.688 0.447997 16.952 0.447997C26.264 0.447997 33.8 7.888 33.8 17.2C33.8 22.432 37.928 26.56 43.112 26.56C48.248 26.56 52.424 22.432 52.424 17.2C52.424 12.064 48.248 7.84 43.112 7.84C39.896 7.84 37.064 9.472 35.384 11.968C34.664 9.328 33.368 6.928 31.64 4.912C34.664 2.128 38.696 0.447997 43.112 0.447997C52.376 0.447997 59.864 7.888 59.864 17.2C59.864 26.464 52.376 34 43.112 34C33.848 34 26.312 26.464 26.312 17.2C26.312 12.064 22.088 7.84 16.952 7.84C11.768 7.84 7.688 12.064 7.688 17.2C7.688 22.432 11.768 26.56 16.952 26.56C20.168 26.56 22.952 24.976 24.68 22.48C25.4 25.168 26.744 27.52 28.424 29.584C25.4 32.368 21.368 34 16.952 34C7.688 34 0.152 26.464 0.152 17.2Z" fill="url(#paint0_linear_2_5)"/>
<defs>
<linearGradient id="paint0_linear_2_5" x1="59" y1="17" x2="-1" y2="17" gradientUnits="userSpaceOnUse">
<stop stop-color="#1DB954"/>
<stop offset="1" stop-color="white"/>
</linearGradient>
</defs>
</svg>
